<?xml version="1.0" standalone="no"?>
<!DOCTYPE svg PUBLIC "-//W3C//DTD SVG 20010904//EN"
 "http://www.w3.org/TR/2001/REC-SVG-20010904/DTD/svg10.dtd">
<svg version="1.0" xmlns="http://www.w3.org/2000/svg"
 width="178.000000pt" height="178.000000pt" viewBox="0 0 178.000000 178.000000"
 preserveAspectRatio="xMidYMid meet">
<metadata>
Created by potrace 1.16, written by Peter Selinger 2001-2019
</metadata>
<g transform="translate(0.000000,178.000000) scale(0.100000,-0.100000)"
fill="#000000" stroke="none">
<path d="M0 890 l0 -890 890 0 890 0 0 890 0 890 -890 0 -890 0 0 -890z m1730
0 l0 -840 -840 0 -840 0 0 840 0 840 840 0 840 0 0 -840z"/>
<path d="M240 890 l0 -650 650 0 650 0 0 650 0 650 -650 0 -650 0 0 -650z"/>
</g>
</svg>
